<?xml version="1.0" standalone="no"?>
<!DOCTYPE svg PUBLIC "-//W3C//DTD SVG 20010904//EN"
 "http://www.w3.org/TR/2001/REC-SVG-20010904/DTD/svg10.dtd">
<svg version="1.0" xmlns="http://www.w3.org/2000/svg"
 width="1001.000000pt" height="1280.000000pt" viewBox="0 0 1001.000000 1280.000000"
 preserveAspectRatio="xMidYMid meet">
<metadata>
Created by potrace 1.15, written by Peter Selinger 2001-2017
</metadata>
<g transform="translate(0.000000,1280.000000) scale(0.100000,-0.100000)"
fill="#000000" stroke="none">
<path d="M4816 12745 l-37 -45 210 -272 211 -273 50 -143 c27 -79 50 -146 50
-148 0 -3 -54 36 -120 86 -120 91 -122 91 -308 156 -396 139 -927 314 -951
314 -42 0 -845 -121 -853 -128 -3 -4 -8 -31 -9 -61 l-3 -55 69 -22 c39 -13
200 -63 359 -113 273 -85 293 -92 373 -146 46 -32 83 -59 81 -60 -2 -2 -113
11 -246 29 l-244 33 -385 -39 -385 -38 -489 -262 c-269 -144 -487 -263 -485
-265 2 -2 133 -26 292 -53 l289 -50 280 0 280 0 148 -56 c81 -31 146 -58 145
-59 -5 -5 -502 -102 -793 -155 -291 -54 -365 -75 -1032 -295 l-131 -43 -249
-212 c-136 -117 -256 -220 -266 -229 -16 -16 -16 -19 10 -69 25 -46 31 -52 53
-47 27 6 369 107 537 158 l101 30 119 -33 c65 -18 124 -36 131 -40 8 -4 -103
-60 -260 -132 l-273 -126 -223 -248 -223 -247 -315 -466 -314 -466 46 -42 47
-42 91 73 c50 39 155 122 233 184 l141 112 214 74 c117 41 214 74 215 72 1 -1
-85 -110 -191 -241 l-194 -240 -116 -245 -116 -245 2 -392 3 -393 274 321
c220 257 292 334 365 391 124 98 117 93 112 77 -3 -8 -34 -135 -69 -284 l-64
-270 13 -345 13 -345 243 -622 c133 -342 244 -621 245 -620 1 2 27 153 58 336
55 333 136 708 160 746 29 46 235 286 235 273 0 -7 -9 -158 -20 -335 l-20
-323 143 -439 142 -440 405 -450 c222 -247 406 -449 408 -447 2 2 -13 140 -33
307 -19 167 -46 446 -60 619 l-25 315 87 183 c51 106 90 177 94 170 4 -7 45
-132 92 -278 l85 -265 190 -338 c189 -336 190 -339 186 -390 -10 -119 -55
-1180 -51 -1192 3 -6 23 -15 45 -19 22 -3 47 -8 55 -11 10 -5 40 49 113 209
54 118 100 213 102 212 2 -3 74 -842 92 -1080 6 -82 8 -152 3 -157 -4 -4 -147
-64 -318 -133 l-310 -125 -385 -41 c-749 -81 -890 -97 -895 -101 -2 -3 88 -74
201 -158 112 -84 206 -157 209 -161 2 -4 -137 -56 -310 -115 l-315 -108 -289
-411 c-159 -226 -288 -412 -287 -413 1 -1 69 13 151 32 83 18 292 66 465 105
268 60 350 83 552 155 130 47 239 85 243 85 3 0 -33 -46 -82 -102 -49 -57
-113 -131 -142 -166 l-54 -63 -47 -312 c-26 -172 -44 -313 -40 -315 4 -1 187
81 407 184 l401 187 169 152 c92 84 169 152 171 151 1 -2 -17 -50 -41 -107
-35 -83 -267 -790 -267 -813 0 -3 169 106 375 244 331 221 403 274 612 450
131 110 239 197 241 192 1 -5 -25 -136 -58 -292 -33 -156 -59 -288 -58 -292 2
-5 163 166 358 379 l355 387 37 341 c20 187 37 356 38 377 0 20 -13 64 -30 99
-16 35 -28 65 -26 67 2 2 93 -31 201 -73 108 -42 203 -74 212 -71 9 4 139 1
289 -6 l274 -12 0 -30 c0 -17 -9 -124 -20 -238 l-20 -207 92 -251 92 -251 300
-350 c165 -193 302 -347 303 -342 2 4 -25 160 -60 346 -35 185 -62 337 -60
337 1 0 13 -17 27 -38 13 -20 122 -125 244 -231 l220 -194 327 -189 328 -190
43 44 43 43 -255 410 c-141 226 -258 415 -262 420 -3 6 1 5 9 -1 8 -6 81 -62
164 -125 82 -63 377 -266 654 -451 l506 -338 43 43 44 44 -137 246 c-127 232
-144 268 -266 588 -71 188 -128 343 -126 345 2 2 133 -64 293 -146 l289 -149
215 -55 c118 -31 336 -87 485 -125 148 -39 271 -68 273 -66 2 2 -157 178 -353
392 l-357 388 -299 140 c-164 77 -299 142 -299 145 0 3 120 36 268 72 147 36
260 69 252 72 -8 3 -177 55 -375 116 -198 61 -403 125 -455 141 -71 22 -179
41 -425 74 -639 84 -583 75 -588 99 -3 11 -24 179 -48 372 l-43 351 18 364 c9
200 26 532 37 738 l19 373 95 407 c66 279 101 410 112 418 9 7 18 12 19 10 1
-1 20 -47 42 -102 l40 -100 81 163 81 162 55 28 55 27 -24 35 -23 35 156 315
c86 173 177 363 201 422 25 59 48 108 52 108 3 0 19 -33 36 -72 29 -72 29 -76
57 -533 15 -253 28 -461 30 -463 4 -4 370 430 382 453 38 72 193 528 243 715
34 124 63 234 67 245 4 14 44 -57 143 -255 82 -162 140 -269 144 -260 3 8 46
179 96 379 l91 364 14 262 14 262 -45 168 c-24 93 -43 172 -42 177 2 6 517
-235 581 -273 11 -6 20 -9 22 -7 1 2 -30 206 -71 454 l-73 451 -131 275 -131
275 -97 71 c-52 40 -92 72 -86 72 5 0 159 -38 342 -84 l332 -84 0 52 c0 50 -3
55 -143 246 -139 189 -147 203 -267 455 -67 143 -128 265 -134 272 -6 7 -115
70 -242 141 -160 89 -277 146 -382 187 -84 32 -151 60 -149 62 15 14 149 -6
490 -72 219 -42 401 -75 403 -72 2 2 -156 171 -351 375 l-355 370 -198 66
-197 66 -163 0 c-149 0 -190 7 -144 25 25 9 501 299 502 305 0 3 -109 44 -242
91 l-243 86 -275 -27 -275 -27 -200 -90 c-110 -50 -201 -90 -202 -89 -3 2 99
638 137 850 22 126 39 231 36 233 -2 2 -150 -79 -327 -181 l-324 -186 -224
-214 -224 -214 -106 138 c-93 120 -130 158 -300 306 l-194 168 -426 188 c-234
103 -429 188 -432 188 -4 0 -23 -20 -43 -45z m343 -6816 l9 -244 -47 -390
c-27 -214 -47 -391 -46 -393 1 -1 102 90 225 203 242 224 843 726 854 714 2
-2 -26 -57 -63 -121 -62 -107 -72 -133 -116 -300 -27 -101 -50 -188 -52 -194
-2 -6 91 16 207 48 117 33 214 58 216 56 2 -3 -3 -157 -11 -344 l-14 -339 -61
-287 -60 -288 -306 -577 c-168 -318 -314 -592 -324 -609 l-18 -32 31 -29 c65
-59 53 -62 187 43 67 52 124 94 125 92 2 -2 -98 -241 -223 -531 -124 -290
-229 -524 -232 -520 -4 5 -55 193 -115 418 l-108 410 -164 328 c-132 264 -166
342 -177 400 -8 40 -13 73 -11 75 1 1 50 -80 108 -180 143 -246 121 -223 190
-197 43 16 56 26 53 38 -3 9 -41 225 -86 481 -44 256 -83 477 -86 492 -3 15
-111 177 -240 360 l-235 333 5 79 6 80 165 276 165 276 79 234 c67 201 147
397 158 386 2 -2 7 -113 12 -247z"/>
</g>
</svg>
